<mxfile host="Electron" modified="2024-03-20T01:51:47.295Z" agent="Mozilla/5.0 (Windows NT 10.0; Win64; x64) AppleWebKit/537.36 (KHTML, like Gecko) draw.io/23.1.5 Chrome/120.0.6099.109 Electron/28.1.0 Safari/537.36" etag="0zQ-dle6p-UmwjDpxF1_" version="23.1.5" type="device">
  <diagram name="PÃ¡gina-1" id="iAeR2K0S2jcefy6j9x7n">
    <mxGraphModel dx="1691" dy="516" grid="1" gridSize="10" guides="1" tooltips="1" connect="1" arrows="1" fold="1" page="1" pageScale="1" pageWidth="827" pageHeight="1169" math="0" shadow="0">
      <root>
        <mxCell id="0" />
        <mxCell id="1" parent="0" />
        <mxCell id="PioVPkemLRSFq9wWyBYN-7" style="edgeStyle=orthogonalEdgeStyle;rounded=0;orthogonalLoop=1;jettySize=auto;html=1;exitX=1;exitY=0;exitDx=0;exitDy=0;entryX=0;entryY=0.5;entryDx=0;entryDy=0;" edge="1" parent="1" source="PioVPkemLRSFq9wWyBYN-1" target="PioVPkemLRSFq9wWyBYN-2">
          <mxGeometry relative="1" as="geometry" />
        </mxCell>
        <mxCell id="PioVPkemLRSFq9wWyBYN-8" style="edgeStyle=orthogonalEdgeStyle;rounded=0;orthogonalLoop=1;jettySize=auto;html=1;exitX=1;exitY=0.5;exitDx=0;exitDy=0;entryX=0;entryY=0.5;entryDx=0;entryDy=0;" edge="1" parent="1" source="PioVPkemLRSFq9wWyBYN-1" target="PioVPkemLRSFq9wWyBYN-3">
          <mxGeometry relative="1" as="geometry" />
        </mxCell>
        <mxCell id="PioVPkemLRSFq9wWyBYN-10" style="edgeStyle=orthogonalEdgeStyle;rounded=0;orthogonalLoop=1;jettySize=auto;html=1;exitX=1;exitY=0.75;exitDx=0;exitDy=0;entryX=0;entryY=0.5;entryDx=0;entryDy=0;" edge="1" parent="1" source="PioVPkemLRSFq9wWyBYN-1" target="PioVPkemLRSFq9wWyBYN-4">
          <mxGeometry relative="1" as="geometry" />
        </mxCell>
        <mxCell id="PioVPkemLRSFq9wWyBYN-11" style="edgeStyle=orthogonalEdgeStyle;rounded=0;orthogonalLoop=1;jettySize=auto;html=1;exitX=1;exitY=1;exitDx=0;exitDy=0;entryX=0;entryY=0.5;entryDx=0;entryDy=0;" edge="1" parent="1" source="PioVPkemLRSFq9wWyBYN-1" target="PioVPkemLRSFq9wWyBYN-5">
          <mxGeometry relative="1" as="geometry" />
        </mxCell>
        <mxCell id="PioVPkemLRSFq9wWyBYN-12" style="edgeStyle=orthogonalEdgeStyle;rounded=0;orthogonalLoop=1;jettySize=auto;html=1;exitX=0.75;exitY=1;exitDx=0;exitDy=0;entryX=0;entryY=0.5;entryDx=0;entryDy=0;" edge="1" parent="1" source="PioVPkemLRSFq9wWyBYN-1" target="PioVPkemLRSFq9wWyBYN-6">
          <mxGeometry relative="1" as="geometry" />
        </mxCell>
        <mxCell id="PioVPkemLRSFq9wWyBYN-1" value="Hospital&amp;nbsp;" style="whiteSpace=wrap;html=1;align=center;fillColor=#f5f5f5;fontColor=#333333;strokeColor=#666666;" vertex="1" parent="1">
          <mxGeometry x="360" y="250" width="100" height="40" as="geometry" />
        </mxCell>
        <mxCell id="PioVPkemLRSFq9wWyBYN-2" value="Ciudad&amp;nbsp;" style="ellipse;whiteSpace=wrap;html=1;align=center;fillColor=#1ba1e2;fontColor=#ffffff;strokeColor=#006EAF;" vertex="1" parent="1">
          <mxGeometry x="500" y="160" width="100" height="40" as="geometry" />
        </mxCell>
        <mxCell id="PioVPkemLRSFq9wWyBYN-3" value="Direccion&amp;nbsp;" style="ellipse;whiteSpace=wrap;html=1;align=center;fillColor=#1ba1e2;fontColor=#ffffff;strokeColor=#006EAF;" vertex="1" parent="1">
          <mxGeometry x="500" y="220" width="100" height="40" as="geometry" />
        </mxCell>
        <mxCell id="PioVPkemLRSFq9wWyBYN-4" value="Id_Hosptal&amp;nbsp;" style="ellipse;whiteSpace=wrap;html=1;align=center;fontStyle=4;fillColor=#1ba1e2;fontColor=#ffffff;strokeColor=#006EAF;" vertex="1" parent="1">
          <mxGeometry x="500" y="280" width="100" height="40" as="geometry" />
        </mxCell>
        <mxCell id="PioVPkemLRSFq9wWyBYN-5" value="&lt;span style=&quot;border-bottom: 1px dotted&quot;&gt;ID_medico&amp;nbsp;&lt;/span&gt;" style="ellipse;whiteSpace=wrap;html=1;align=center;fillColor=#1ba1e2;fontColor=#ffffff;strokeColor=#006EAF;" vertex="1" parent="1">
          <mxGeometry x="500" y="340" width="100" height="40" as="geometry" />
        </mxCell>
        <mxCell id="PioVPkemLRSFq9wWyBYN-6" value="&lt;span style=&quot;border-bottom: 1px dotted&quot;&gt;ID_Paciente&amp;nbsp;&lt;/span&gt;" style="ellipse;whiteSpace=wrap;html=1;align=center;fillColor=#1ba1e2;fontColor=#ffffff;strokeColor=#006EAF;" vertex="1" parent="1">
          <mxGeometry x="500" y="390" width="100" height="40" as="geometry" />
        </mxCell>
        <mxCell id="PioVPkemLRSFq9wWyBYN-13" value="" style="endArrow=none;html=1;rounded=0;" edge="1" parent="1">
          <mxGeometry relative="1" as="geometry">
            <mxPoint x="240" y="280" as="sourcePoint" />
            <mxPoint x="360" y="280" as="targetPoint" />
          </mxGeometry>
        </mxCell>
        <mxCell id="PioVPkemLRSFq9wWyBYN-14" value="1" style="resizable=0;html=1;whiteSpace=wrap;align=right;verticalAlign=bottom;" connectable="0" vertex="1" parent="PioVPkemLRSFq9wWyBYN-13">
          <mxGeometry x="1" relative="1" as="geometry" />
        </mxCell>
        <mxCell id="PioVPkemLRSFq9wWyBYN-16" value="Tiene&amp;nbsp;" style="shape=rhombus;perimeter=rhombusPerimeter;whiteSpace=wrap;html=1;align=center;fillColor=#6d8764;fontColor=#ffffff;strokeColor=#3A5431;" vertex="1" parent="1">
          <mxGeometry x="120" y="250" width="120" height="60" as="geometry" />
        </mxCell>
        <mxCell id="PioVPkemLRSFq9wWyBYN-17" value="" style="endArrow=none;html=1;rounded=0;" edge="1" parent="1">
          <mxGeometry relative="1" as="geometry">
            <mxPoint x="10" y="280" as="sourcePoint" />
            <mxPoint x="120" y="280" as="targetPoint" />
          </mxGeometry>
        </mxCell>
        <mxCell id="PioVPkemLRSFq9wWyBYN-18" value="N" style="resizable=0;html=1;whiteSpace=wrap;align=right;verticalAlign=bottom;" connectable="0" vertex="1" parent="PioVPkemLRSFq9wWyBYN-17">
          <mxGeometry x="1" relative="1" as="geometry">
            <mxPoint x="-100" as="offset" />
          </mxGeometry>
        </mxCell>
        <mxCell id="PioVPkemLRSFq9wWyBYN-26" style="edgeStyle=orthogonalEdgeStyle;rounded=0;orthogonalLoop=1;jettySize=auto;html=1;exitX=0;exitY=0;exitDx=0;exitDy=0;entryX=1;entryY=0.5;entryDx=0;entryDy=0;" edge="1" parent="1" source="PioVPkemLRSFq9wWyBYN-19" target="PioVPkemLRSFq9wWyBYN-23">
          <mxGeometry relative="1" as="geometry" />
        </mxCell>
        <mxCell id="PioVPkemLRSFq9wWyBYN-27" style="edgeStyle=orthogonalEdgeStyle;rounded=0;orthogonalLoop=1;jettySize=auto;html=1;exitX=0;exitY=0.25;exitDx=0;exitDy=0;entryX=1;entryY=0.5;entryDx=0;entryDy=0;" edge="1" parent="1" source="PioVPkemLRSFq9wWyBYN-19" target="PioVPkemLRSFq9wWyBYN-22">
          <mxGeometry relative="1" as="geometry" />
        </mxCell>
        <mxCell id="PioVPkemLRSFq9wWyBYN-28" style="edgeStyle=orthogonalEdgeStyle;rounded=0;orthogonalLoop=1;jettySize=auto;html=1;exitX=0;exitY=0.5;exitDx=0;exitDy=0;entryX=1;entryY=0.5;entryDx=0;entryDy=0;" edge="1" parent="1" source="PioVPkemLRSFq9wWyBYN-19" target="PioVPkemLRSFq9wWyBYN-21">
          <mxGeometry relative="1" as="geometry" />
        </mxCell>
        <mxCell id="PioVPkemLRSFq9wWyBYN-29" style="edgeStyle=orthogonalEdgeStyle;rounded=0;orthogonalLoop=1;jettySize=auto;html=1;exitX=0;exitY=0.75;exitDx=0;exitDy=0;entryX=1;entryY=0.5;entryDx=0;entryDy=0;" edge="1" parent="1" source="PioVPkemLRSFq9wWyBYN-19" target="PioVPkemLRSFq9wWyBYN-24">
          <mxGeometry relative="1" as="geometry" />
        </mxCell>
        <mxCell id="PioVPkemLRSFq9wWyBYN-30" style="edgeStyle=orthogonalEdgeStyle;rounded=0;orthogonalLoop=1;jettySize=auto;html=1;exitX=0;exitY=1;exitDx=0;exitDy=0;entryX=1;entryY=0.5;entryDx=0;entryDy=0;" edge="1" parent="1" source="PioVPkemLRSFq9wWyBYN-19" target="PioVPkemLRSFq9wWyBYN-25">
          <mxGeometry relative="1" as="geometry" />
        </mxCell>
        <mxCell id="PioVPkemLRSFq9wWyBYN-19" value="Doctor&amp;nbsp;" style="whiteSpace=wrap;html=1;align=center;fillColor=#f5f5f5;fontColor=#333333;strokeColor=#666666;" vertex="1" parent="1">
          <mxGeometry x="-90" y="260" width="100" height="40" as="geometry" />
        </mxCell>
        <mxCell id="PioVPkemLRSFq9wWyBYN-21" value="Salario&amp;nbsp;" style="ellipse;whiteSpace=wrap;html=1;align=center;fillColor=#1ba1e2;fontColor=#ffffff;strokeColor=#006EAF;" vertex="1" parent="1">
          <mxGeometry x="-250" y="260" width="100" height="40" as="geometry" />
        </mxCell>
        <mxCell id="PioVPkemLRSFq9wWyBYN-22" value="Cualificacion&amp;nbsp;" style="ellipse;whiteSpace=wrap;html=1;align=center;fillColor=#1ba1e2;fontColor=#ffffff;strokeColor=#006EAF;" vertex="1" parent="1">
          <mxGeometry x="-250" y="210" width="100" height="40" as="geometry" />
        </mxCell>
        <mxCell id="PioVPkemLRSFq9wWyBYN-23" value="Nombre" style="ellipse;whiteSpace=wrap;html=1;align=center;fillColor=#1ba1e2;fontColor=#ffffff;strokeColor=#006EAF;" vertex="1" parent="1">
          <mxGeometry x="-250" y="160" width="100" height="40" as="geometry" />
        </mxCell>
        <mxCell id="PioVPkemLRSFq9wWyBYN-24" value="ID_Doctor&amp;nbsp;" style="ellipse;whiteSpace=wrap;html=1;align=center;fontStyle=4;fillColor=#1ba1e2;fontColor=#ffffff;strokeColor=#006EAF;" vertex="1" parent="1">
          <mxGeometry x="-250" y="310" width="100" height="40" as="geometry" />
        </mxCell>
        <mxCell id="PioVPkemLRSFq9wWyBYN-25" value="&lt;span style=&quot;border-bottom: 1px dotted&quot;&gt;ID_Hospital&amp;nbsp;&lt;/span&gt;" style="ellipse;whiteSpace=wrap;html=1;align=center;fillColor=#1ba1e2;fontColor=#ffffff;strokeColor=#006EAF;" vertex="1" parent="1">
          <mxGeometry x="-250" y="360" width="100" height="40" as="geometry" />
        </mxCell>
        <mxCell id="PioVPkemLRSFq9wWyBYN-31" value="" style="endArrow=none;html=1;rounded=0;entryX=0.5;entryY=1;entryDx=0;entryDy=0;" edge="1" parent="1">
          <mxGeometry relative="1" as="geometry">
            <mxPoint x="-40.5" y="440" as="sourcePoint" />
            <mxPoint x="-40.5" y="300" as="targetPoint" />
            <Array as="points" />
          </mxGeometry>
        </mxCell>
        <mxCell id="PioVPkemLRSFq9wWyBYN-32" value="1" style="resizable=0;html=1;whiteSpace=wrap;align=right;verticalAlign=bottom;" connectable="0" vertex="1" parent="PioVPkemLRSFq9wWyBYN-31">
          <mxGeometry x="1" relative="1" as="geometry">
            <mxPoint x="1" y="20" as="offset" />
          </mxGeometry>
        </mxCell>
        <mxCell id="PioVPkemLRSFq9wWyBYN-33" value="Tiene&amp;nbsp;" style="shape=rhombus;perimeter=rhombusPerimeter;whiteSpace=wrap;html=1;align=center;fillColor=#6d8764;fontColor=#ffffff;strokeColor=#3A5431;" vertex="1" parent="1">
          <mxGeometry x="-100" y="440" width="120" height="60" as="geometry" />
        </mxCell>
        <mxCell id="PioVPkemLRSFq9wWyBYN-46" style="edgeStyle=orthogonalEdgeStyle;rounded=0;orthogonalLoop=1;jettySize=auto;html=1;exitX=0.25;exitY=0;exitDx=0;exitDy=0;entryX=1;entryY=0.5;entryDx=0;entryDy=0;" edge="1" parent="1" source="PioVPkemLRSFq9wWyBYN-34" target="PioVPkemLRSFq9wWyBYN-37">
          <mxGeometry relative="1" as="geometry" />
        </mxCell>
        <mxCell id="PioVPkemLRSFq9wWyBYN-47" style="edgeStyle=orthogonalEdgeStyle;rounded=0;orthogonalLoop=1;jettySize=auto;html=1;exitX=0;exitY=0;exitDx=0;exitDy=0;entryX=1;entryY=0.5;entryDx=0;entryDy=0;" edge="1" parent="1" source="PioVPkemLRSFq9wWyBYN-34" target="PioVPkemLRSFq9wWyBYN-42">
          <mxGeometry relative="1" as="geometry" />
        </mxCell>
        <mxCell id="PioVPkemLRSFq9wWyBYN-48" style="edgeStyle=orthogonalEdgeStyle;rounded=0;orthogonalLoop=1;jettySize=auto;html=1;exitX=0;exitY=0.25;exitDx=0;exitDy=0;entryX=1;entryY=0.5;entryDx=0;entryDy=0;" edge="1" parent="1" source="PioVPkemLRSFq9wWyBYN-34" target="PioVPkemLRSFq9wWyBYN-41">
          <mxGeometry relative="1" as="geometry" />
        </mxCell>
        <mxCell id="PioVPkemLRSFq9wWyBYN-49" style="edgeStyle=orthogonalEdgeStyle;rounded=0;orthogonalLoop=1;jettySize=auto;html=1;exitX=0;exitY=0.5;exitDx=0;exitDy=0;entryX=1;entryY=0.5;entryDx=0;entryDy=0;" edge="1" parent="1" source="PioVPkemLRSFq9wWyBYN-34" target="PioVPkemLRSFq9wWyBYN-40">
          <mxGeometry relative="1" as="geometry" />
        </mxCell>
        <mxCell id="PioVPkemLRSFq9wWyBYN-50" style="edgeStyle=orthogonalEdgeStyle;rounded=0;orthogonalLoop=1;jettySize=auto;html=1;exitX=0;exitY=0.75;exitDx=0;exitDy=0;entryX=1;entryY=0.5;entryDx=0;entryDy=0;" edge="1" parent="1" source="PioVPkemLRSFq9wWyBYN-34" target="PioVPkemLRSFq9wWyBYN-44">
          <mxGeometry relative="1" as="geometry" />
        </mxCell>
        <mxCell id="PioVPkemLRSFq9wWyBYN-51" style="edgeStyle=orthogonalEdgeStyle;rounded=0;orthogonalLoop=1;jettySize=auto;html=1;exitX=0;exitY=1;exitDx=0;exitDy=0;entryX=1;entryY=0.5;entryDx=0;entryDy=0;" edge="1" parent="1" source="PioVPkemLRSFq9wWyBYN-34" target="PioVPkemLRSFq9wWyBYN-45">
          <mxGeometry relative="1" as="geometry" />
        </mxCell>
        <mxCell id="PioVPkemLRSFq9wWyBYN-34" value="Paciente&amp;nbsp;" style="whiteSpace=wrap;html=1;align=center;fillColor=#f5f5f5;fontColor=#333333;strokeColor=#666666;" vertex="1" parent="1">
          <mxGeometry x="-90" y="630" width="100" height="40" as="geometry" />
        </mxCell>
        <mxCell id="PioVPkemLRSFq9wWyBYN-35" value="" style="endArrow=none;html=1;rounded=0;" edge="1" parent="1">
          <mxGeometry relative="1" as="geometry">
            <mxPoint x="-40.5" y="630" as="sourcePoint" />
            <mxPoint x="-40" y="500" as="targetPoint" />
          </mxGeometry>
        </mxCell>
        <mxCell id="PioVPkemLRSFq9wWyBYN-36" value="N" style="resizable=0;html=1;whiteSpace=wrap;align=right;verticalAlign=bottom;" connectable="0" vertex="1" parent="PioVPkemLRSFq9wWyBYN-35">
          <mxGeometry x="1" relative="1" as="geometry">
            <mxPoint x="-10" y="20" as="offset" />
          </mxGeometry>
        </mxCell>
        <mxCell id="PioVPkemLRSFq9wWyBYN-37" value="ID_Paciente&amp;nbsp;" style="ellipse;whiteSpace=wrap;html=1;align=center;fontStyle=4;fillColor=#1ba1e2;fontColor=#ffffff;strokeColor=#006EAF;" vertex="1" parent="1">
          <mxGeometry x="-260" y="550" width="100" height="40" as="geometry" />
        </mxCell>
        <mxCell id="PioVPkemLRSFq9wWyBYN-40" value="Diagnostico&amp;nbsp;" style="ellipse;whiteSpace=wrap;html=1;align=center;fillColor=#1ba1e2;fontColor=#ffffff;strokeColor=#006EAF;" vertex="1" parent="1">
          <mxGeometry x="-260" y="700" width="100" height="40" as="geometry" />
        </mxCell>
        <mxCell id="PioVPkemLRSFq9wWyBYN-41" value="Direccion&amp;nbsp;" style="ellipse;whiteSpace=wrap;html=1;align=center;fillColor=#1ba1e2;fontColor=#ffffff;strokeColor=#006EAF;" vertex="1" parent="1">
          <mxGeometry x="-260" y="650" width="100" height="40" as="geometry" />
        </mxCell>
        <mxCell id="PioVPkemLRSFq9wWyBYN-42" value="Nombre&amp;nbsp;" style="ellipse;whiteSpace=wrap;html=1;align=center;fillColor=#1ba1e2;fontColor=#ffffff;strokeColor=#006EAF;" vertex="1" parent="1">
          <mxGeometry x="-260" y="600" width="100" height="40" as="geometry" />
        </mxCell>
        <mxCell id="PioVPkemLRSFq9wWyBYN-44" value="&lt;span style=&quot;border-bottom: 1px dotted&quot;&gt;ID_Registro&lt;/span&gt;" style="ellipse;whiteSpace=wrap;html=1;align=center;fillColor=#1ba1e2;fontColor=#ffffff;strokeColor=#006EAF;" vertex="1" parent="1">
          <mxGeometry x="-260" y="750" width="100" height="40" as="geometry" />
        </mxCell>
        <mxCell id="PioVPkemLRSFq9wWyBYN-45" value="&lt;span style=&quot;border-bottom: 1px dotted&quot;&gt;ID_Hospital&amp;nbsp;&lt;/span&gt;" style="ellipse;whiteSpace=wrap;html=1;align=center;fillColor=#1ba1e2;fontColor=#ffffff;strokeColor=#006EAF;" vertex="1" parent="1">
          <mxGeometry x="-260" y="800" width="100" height="40" as="geometry" />
        </mxCell>
        <mxCell id="PioVPkemLRSFq9wWyBYN-52" value="" style="endArrow=none;html=1;rounded=0;" edge="1" parent="1">
          <mxGeometry relative="1" as="geometry">
            <mxPoint x="160" y="650" as="sourcePoint" />
            <mxPoint x="10" y="650" as="targetPoint" />
          </mxGeometry>
        </mxCell>
        <mxCell id="PioVPkemLRSFq9wWyBYN-53" value="1" style="resizable=0;html=1;whiteSpace=wrap;align=right;verticalAlign=bottom;" connectable="0" vertex="1" parent="PioVPkemLRSFq9wWyBYN-52">
          <mxGeometry x="1" relative="1" as="geometry">
            <mxPoint x="20" as="offset" />
          </mxGeometry>
        </mxCell>
        <mxCell id="PioVPkemLRSFq9wWyBYN-54" value="Tiene&amp;nbsp;" style="shape=rhombus;perimeter=rhombusPerimeter;whiteSpace=wrap;html=1;align=center;fillColor=#6d8764;fontColor=#ffffff;strokeColor=#3A5431;" vertex="1" parent="1">
          <mxGeometry x="160" y="620" width="120" height="60" as="geometry" />
        </mxCell>
        <mxCell id="PioVPkemLRSFq9wWyBYN-55" value="" style="endArrow=none;html=1;rounded=0;" edge="1" parent="1">
          <mxGeometry relative="1" as="geometry">
            <mxPoint x="280" y="650" as="sourcePoint" />
            <mxPoint x="440" y="650" as="targetPoint" />
          </mxGeometry>
        </mxCell>
        <mxCell id="PioVPkemLRSFq9wWyBYN-56" value="1" style="resizable=0;html=1;whiteSpace=wrap;align=right;verticalAlign=bottom;" connectable="0" vertex="1" parent="PioVPkemLRSFq9wWyBYN-55">
          <mxGeometry x="1" relative="1" as="geometry" />
        </mxCell>
        <mxCell id="PioVPkemLRSFq9wWyBYN-62" style="edgeStyle=orthogonalEdgeStyle;rounded=0;orthogonalLoop=1;jettySize=auto;html=1;exitX=1;exitY=0;exitDx=0;exitDy=0;entryX=0;entryY=0.5;entryDx=0;entryDy=0;" edge="1" parent="1" source="PioVPkemLRSFq9wWyBYN-57" target="PioVPkemLRSFq9wWyBYN-61">
          <mxGeometry relative="1" as="geometry" />
        </mxCell>
        <mxCell id="PioVPkemLRSFq9wWyBYN-63" style="edgeStyle=orthogonalEdgeStyle;rounded=0;orthogonalLoop=1;jettySize=auto;html=1;exitX=1;exitY=0.25;exitDx=0;exitDy=0;entryX=0;entryY=0.5;entryDx=0;entryDy=0;" edge="1" parent="1" source="PioVPkemLRSFq9wWyBYN-57" target="PioVPkemLRSFq9wWyBYN-60">
          <mxGeometry relative="1" as="geometry" />
        </mxCell>
        <mxCell id="PioVPkemLRSFq9wWyBYN-64" style="edgeStyle=orthogonalEdgeStyle;rounded=0;orthogonalLoop=1;jettySize=auto;html=1;exitX=1;exitY=0.75;exitDx=0;exitDy=0;entryX=0;entryY=0.5;entryDx=0;entryDy=0;" edge="1" parent="1" source="PioVPkemLRSFq9wWyBYN-57" target="PioVPkemLRSFq9wWyBYN-59">
          <mxGeometry relative="1" as="geometry" />
        </mxCell>
        <mxCell id="PioVPkemLRSFq9wWyBYN-65" style="edgeStyle=orthogonalEdgeStyle;rounded=0;orthogonalLoop=1;jettySize=auto;html=1;exitX=1;exitY=1;exitDx=0;exitDy=0;entryX=0;entryY=0.5;entryDx=0;entryDy=0;" edge="1" parent="1" source="PioVPkemLRSFq9wWyBYN-57" target="PioVPkemLRSFq9wWyBYN-58">
          <mxGeometry relative="1" as="geometry" />
        </mxCell>
        <mxCell id="PioVPkemLRSFq9wWyBYN-57" value="Registros Medicos&amp;nbsp;" style="whiteSpace=wrap;html=1;align=center;fillColor=#f5f5f5;fontColor=#333333;strokeColor=#666666;" vertex="1" parent="1">
          <mxGeometry x="440" y="630" width="100" height="40" as="geometry" />
        </mxCell>
        <mxCell id="PioVPkemLRSFq9wWyBYN-58" value="Problema&amp;nbsp;" style="ellipse;whiteSpace=wrap;html=1;align=center;fillColor=#1ba1e2;fontColor=#ffffff;strokeColor=#006EAF;" vertex="1" parent="1">
          <mxGeometry x="610" y="700" width="100" height="40" as="geometry" />
        </mxCell>
        <mxCell id="PioVPkemLRSFq9wWyBYN-59" value="ID_Registro&amp;nbsp;" style="ellipse;whiteSpace=wrap;html=1;align=center;fontStyle=4;fillColor=#1ba1e2;fontColor=#ffffff;strokeColor=#006EAF;" vertex="1" parent="1">
          <mxGeometry x="610" y="640" width="100" height="40" as="geometry" />
        </mxCell>
        <mxCell id="PioVPkemLRSFq9wWyBYN-60" value="&lt;span style=&quot;border-bottom: 1px dotted&quot;&gt;ID_Paciente&amp;nbsp;&lt;/span&gt;" style="ellipse;whiteSpace=wrap;html=1;align=center;fillColor=#1ba1e2;fontColor=#ffffff;strokeColor=#006EAF;" vertex="1" parent="1">
          <mxGeometry x="610" y="585" width="100" height="40" as="geometry" />
        </mxCell>
        <mxCell id="PioVPkemLRSFq9wWyBYN-61" value="FechaRegistro" style="ellipse;whiteSpace=wrap;html=1;align=center;dashed=1;fillColor=#1ba1e2;fontColor=#ffffff;strokeColor=#006EAF;" vertex="1" parent="1">
          <mxGeometry x="610" y="530" width="100" height="40" as="geometry" />
        </mxCell>
      </root>
    </mxGraphModel>
  </diagram>
</mxfile>
